<?xml version="1.0" encoding="UTF-8"?>
<svg width="34mm" height="34mm" version="1.1" viewBox="0 0 34 34" xmlns="http://www.w3.org/2000/svg">
 <g transform="translate(-79 -111)">
  <g stroke-width=".35" aria-label="+ 5">
   <path d="m111 129q0 1.9-2.2 1.9h-3.4v-1.1h3.1q0.48 0 0.7-0.16 0.28-0.19 0.28-0.67 0-0.44-0.25-0.64-0.25-0.19-0.73-0.19h-3.1v-3.7h5.3v1.1h-3.9v1.6h2.2q0.86 0 1.4 0.51 0.56 0.5 0.56 1.4zm-7.4-0.34h-2.1v2.2h-0.88v-2.2h-2.2v-0.87h2.2v-2.2h0.88v2.2h2.1zm-10-0.86a4 4 0 0 1-4 4 4 4 0 0 1-4-4 4 4 0 0 1 4-4 4 4 0 0 1 4 4zm-8.5 4.2-0.63 1.1-0.59 0.21 4.2 2.3-0.11-0.52 0.58-1.2zm-1.4-6.1-1.3 0.022-0.48-0.4 0.062 4.8 0.4-0.35 1.4-0.12zm4.7-4.3-0.67-1.1 0.11-0.61-4.1 2.5 0.5 0.17 0.78 1.1zm6.1 2.1 0.63-1.1 0.59-0.21-4.2-2.3 0.11 0.52-0.58 1.2zm1.2 6.1 1.3-0.022 0.48 0.4-0.062-4.8-0.4 0.35-1.4 0.12zm-4.7 4.2 0.67 1.1-0.11 0.61 4.1-2.5-0.5-0.17-0.78-1.1z" fill="#eee"/>
  </g>
 </g>
</svg>
