<?xml version="1.0" encoding="UTF-8"?>
<!-- Created with Inkscape (http://www.inkscape.org/) -->
<svg width="200mm" height="200mm" version="1.1" viewBox="0 0 200 200" xmlns="http://www.w3.org/2000/svg">
 <circle cx="100" cy="100" r="100" fill="none"/>
 <g fill="#eee">
  <path transform="matrix(.27679 0 0 .2767 -143.64 41.873)" d="m932.33 300.42-104.29-0.0586-52.096-90.35 52.197-90.291 104.29 0.0586 52.096 90.35z"/>
  <path transform="matrix(.27679 0 0 .2767 -143.64 -12.127)" d="m932.33 300.42-104.29-0.0586-52.096-90.35 52.197-90.291 104.29 0.0586 52.096 90.35z"/>
  <path transform="matrix(.27679 0 0 .2767 -96.774 68.873)" d="m932.33 300.42-104.29-0.0586-52.096-90.35 52.197-90.291 104.29 0.0586 52.096 90.35z"/>
  <path transform="matrix(.27679 0 0 .2767 -96.774 14.873)" d="m932.33 300.42-104.29-0.0586-52.096-90.35 52.197-90.291 104.29 0.0586 52.096 90.35z"/>
  <path transform="matrix(.27679 0 0 .2767 -190.27 68.873)" d="m932.33 300.42-104.29-0.0586-52.096-90.35 52.197-90.291 104.29 0.0586 52.096 90.35z"/>
  <path transform="matrix(.27679 0 0 .2767 -190.27 14.873)" d="m932.33 300.42-104.29-0.0586-52.096-90.35 52.197-90.291 104.29 0.0586 52.096 90.35z"/>
  <path transform="matrix(.27679 0 0 .2767 -143.64 95.873)" d="m932.33 300.42-104.29-0.0586-52.096-90.35 52.197-90.291 104.29 0.0586 52.096 90.35z"/>
 </g>
</svg>
