<?xml version="1.0" encoding="UTF-8" standalone="no"?>
<!-- Created with Inkscape (http://www.inkscape.org/) -->

<svg
   width="50mm"
   height="50mm"
   viewBox="0 0 50 50"
   version="1.1"
   id="svg2918"
   inkscape:version="1.1.2 (b8e25be833, 2022-02-05)"
   sodipodi:docname="objectives.svg"
   xmlns:inkscape="http://www.inkscape.org/namespaces/inkscape"
   xmlns:sodipodi="http://sodipodi.sourceforge.net/DTD/sodipodi-0.dtd"
   xmlns="http://www.w3.org/2000/svg"
   xmlns:svg="http://www.w3.org/2000/svg">
  <sodipodi:namedview
     id="namedview2920"
     pagecolor="#ffffff"
     bordercolor="#666666"
     borderopacity="1.0"
     inkscape:pageshadow="2"
     inkscape:pageopacity="0.0"
     inkscape:pagecheckerboard="0"
     inkscape:document-units="mm"
     showgrid="false"
     inkscape:zoom="1.5518659"
     inkscape:cx="-6.7660485"
     inkscape:cy="144.98675"
     inkscape:window-width="1920"
     inkscape:window-height="1057"
     inkscape:window-x="-8"
     inkscape:window-y="-8"
     inkscape:window-maximized="1"
     inkscape:current-layer="layer1"
     showguides="false"
     inkscape:guide-bbox="true">
    <sodipodi:guide
       position="24.955349,270.71852"
       orientation="1,0"
       id="guide4950" />
    <sodipodi:guide
       position="15.217184,271.39759"
       orientation="1,0"
       id="guide4952" />
    <sodipodi:guide
       position="34.780764,275.05858"
       orientation="1,0"
       id="guide4954" />
    <sodipodi:guide
       position="7.7759419,271.98438"
       orientation="0,-1"
       id="guide4956" />
    <sodipodi:guide
       position="8.9815143,281.74952"
       orientation="0,-1"
       id="guide4958" />
    <sodipodi:guide
       position="10.187087,262.15896"
       orientation="0,-1"
       id="guide4960" />
  </sodipodi:namedview>
  <defs
     id="defs2915" />
  <g
     inkscape:label="Layer 1"
     inkscape:groupmode="layer"
     id="layer1">
    <path
       style="display:inline;fill:none;stroke:#eeeeee;stroke-width:1.14937;stroke-linecap:butt;stroke-linejoin:miter;stroke-miterlimit:4;stroke-dasharray:none;stroke-opacity:1"
       d="M 5.574685,16.954419 V 33.046151 L 16.95395,44.425318 H 33.045365 L 44.425313,33.045463 V 16.954419 L 33.045477,5.574685 H 16.954405 Z"
       id="path3167"
       inkscape:label="Octagon" />
    <path
       id="path4363"
       style="display:inline;opacity:1;fill:#eeeeee;fill-opacity:1;stroke:none;stroke-width:1.07529;stroke-miterlimit:4;stroke-dasharray:none;stroke-opacity:1"
       inkscape:label="secret"
       d="m 25.031407,12 a 13.282517,12.999794 0 0 0 -9.599094,4.027888 l 16.522803,11.698166 5.822171,-0.01842 -0.0086,-2.828678 h -0.0011 a 2.799895,2.7884736 89.926909 0 0 -2.796457,-2.762139 2.799895,2.7884736 89.926909 0 0 -0.06864,0.0034 v -0.0034 l -7.199243,0.02322 -7.10103,-4.913584 a 8.9021113,8.9020324 0 0 1 4.381995,-1.175496 8.9021113,8.9020324 0 0 1 5.474958,1.883891 h 5.721076 A 13.282517,12.999794 0 0 0 25.03122,12.000261 Z m -6.931715,10.170337 -5.876692,0.01884 0.0086,2.76472 h 2.93e-4 a 2.799895,2.7884736 89.926909 0 0 -2.93e-4,0.03518 2.799895,2.7884736 89.926909 0 0 2.797298,2.790997 2.799895,2.7884736 89.926909 0 0 0.144733,-0.0034 v 0.0034 l 7.231791,-0.02322 7.043639,4.873595 a 8.9021113,8.9020324 0 0 1 -4.465056,1.224894 8.9021113,8.9020324 0 0 1 -5.402156,-1.837055 h -5.730777 a 13.282517,12.999794 0 0 0 11.180045,5.9817 13.282517,12.999794 0 0 0 9.651912,-4.080979 z" />
  </g>
</svg>
