<?xml version="1.0" encoding="UTF-8"?>
<!-- Created with Inkscape (http://www.inkscape.org/) -->
<svg width="50mm" height="50mm" version="1.1" viewBox="0 0 50 50" xmlns="http://www.w3.org/2000/svg">
 <path d="m5.5747 16.954v16.092l11.379 11.379h16.091l11.38-11.38v-16.091l-11.38-11.38h-16.091z" fill="none" stroke="#eee" stroke-width="1.1494"/>
 <g fill="#eee">
  <path d="m17.174 25.012v4.98e-4a1.3125 1.3103 0 0 0-1.2989 1.3099 1.3125 1.3103 0 0 0 0.0012 0.03224h-0.0012v10.657h1.296v-1.28e-4a1.3125 1.3103 0 0 0 0.01638 1.28e-4 1.3125 1.3103 0 0 0 1.3126-1.3103 1.3125 1.3103 0 0 0-0.0017-0.068h0.0017v-10.622z"/>
  <path d="m30.243 25.264v5.43e-4a1.3025 1.3085 0 0 0-1.289 1.308 1.3025 1.3085 0 0 0 0.0012 0.03233h-0.0012v10.642h2.605v-1.3084a1.3025 1.3085 0 0 0 0-0.01216v-10.662zm3.898 0.01672v1.3084a1.3025 1.3085 0 0 0 0 0.01224v10.662l1.316 1.44e-4v-5.28e-4a1.3025 1.3085 0 0 0 1.289-1.3081 1.3025 1.3085 0 0 0-0.0016-0.03216h0.0016v-10.642h-1.3024z"/>
  <path d="m24.964 9.9422a6.1303 5.9998 0 0 0-4.4303 1.859l7.6258 5.3991 2.6871-0.0085-4e-3 -1.3055h-5.05e-4a1.2922 1.287 89.927 0 0-1.2907-1.2748 1.2922 1.287 89.927 0 0-0.03168 0.0016v-0.0016l-3.3227 0.01073-3.2774-2.2678a4.1086 4.1086 0 0 1 2.0224-0.54253 4.1086 4.1086 0 0 1 2.5269 0.86948h2.6405a6.1303 5.9998 0 0 0-5.1456-2.739zm-3.1992 4.694-2.7123 0.0087 4e-3 1.276h1.37e-4a1.2922 1.287 89.927 0 0-1.37e-4 0.01624 1.2922 1.287 89.927 0 0 1.291 1.2881 1.2922 1.287 89.927 0 0 0.0668-0.0016v0.0016l3.3377-0.01072 3.2509 2.2493a4.1086 4.1086 0 0 1-2.0608 0.56533 4.1086 4.1086 0 0 1-2.4933-0.84786h-2.645a6.1303 5.9998 0 0 0 5.16 2.7608 6.1303 5.9998 0 0 0 4.4547-1.8835z"/>
 </g>
</svg>
