<?xml version="1.0" standalone="no"?>
<!DOCTYPE svg PUBLIC "-//W3C//DTD SVG 20010904//EN"
 "http://www.w3.org/TR/2001/REC-SVG-20010904/DTD/svg10.dtd">
<svg version="1.0" xmlns="http://www.w3.org/2000/svg"
 width="260.000000pt" height="260.000000pt" viewBox="0 0 260.000000 260.000000"
 preserveAspectRatio="xMidYMid meet">
<metadata>
Created by potrace 1.14, written by Peter Selinger 2001-2017
</metadata>
<g transform="translate(0.000000,260.000000) scale(0.100000,-0.100000)"
fill="#000000" stroke="none">
<path d="M69 1863 c-6 -52 -2 -173 6 -174 5 -1 80 -3 165 -4 85 -2 158 -3 163
-4 4 0 7 -201 7 -445 l0 -445 113 2 112 1 5 445 5 446 170 0 170 -1 0 91 0 90
-458 3 c-251 1 -457 -1 -458 -5z"/>
<path d="M1100 1331 l0 -539 115 0 115 0 0 539 0 539 -115 0 -115 0 0 -539z"/>
<path d="M1791 1687 c-41 -100 -82 -200 -92 -222 -9 -22 -44 -105 -78 -185
-74 -179 -191 -461 -198 -477 -3 -8 27 -11 111 -12 l115 0 19 52 c11 29 32 87
47 130 l28 77 237 0 237 0 48 -128 49 -129 118 -1 c77 -1 118 2 118 9 0 6 -54
140 -121 297 -67 158 -152 359 -189 447 -37 88 -83 197 -101 242 l-34 82 -120
1 -120 0 -74 -183z m258 -207 c35 -91 69 -179 77 -197 8 -17 14 -34 14 -37 0
-3 -72 -5 -161 -5 -124 -1 -160 2 -156 12 114 308 153 405 158 399 3 -4 34
-81 68 -172z"/>
</g>
</svg>
