<?xml version="1.0" encoding="UTF-8"?>
<svg width="244" height="244" version="1.1" viewBox="0 0 64.56 64.56" xmlns="http://www.w3.org/2000/svg">
 <path d="m28.01 6.139-3.44 5.958 0.5695 0.03062 1.357 0.2498 1.179 0.2143 1.607 0.2504 1.571 0.4997 1.607 0.3215 1.321 0.357 1.464 0.2498 1.571 0.1788 2.107 0.1072 1.857-0.3931 0.6662-0.1666-4.537-7.857h-4.45zm11.81 10.06-2.071 0.07164-1.5 0.2853-1.714 0.286-2.072 0.6068-0.9644 0.2498-1.429 0.286-1.571 0.3215-1.714 0.286-1.393 0.2137-1.786 0.3215-1.464 0.2504h-1.108l-0.6576-0.01286-3.755 6.505 0.8413 0.3919 0.7072 0.3539 1.035 0.4544 0.9595 0.4544 1.212 0.4801 1.339 0.4795 1.364 0.379 1.035 0.177 1.364-0.02571 1.187-0.05021 0.9601-0.2272 1.263-0.3539 1.313-0.4035 1.263-0.5052 0.6821-0.4041 1.136-0.4801 1.364-0.6056 1.313-0.3288 1.692-0.4544 1.818-0.3031 1.768-0.2774 1.591-0.278 1.743-0.1261 1.187-0.1268 0.5088-0.02082-4.164-7.214-0.4237-0.0845-1.392-0.357zm-14.1 15.82-1.566 0.2021-1.919 0.5805-1.768 0.6062-1.44 0.7832-1.818 0.8334-2.172 0.6564-1.743 0.2021-2.171-0.3282-0.09369-0.0025-4.706 8.151 0.2817-0.07654 1.16-0.3931 1.233-0.2321 1.196-0.2143 1.465-0.1072 1.517 0.03613 1.768 0.0894 1.643 0.1604 1.429 0.2143 1.321 0.4819 1.768 0.4825 1.661 0.4641 1.982 0.2498 1.232 0.03613h1.607l1.75-0.1966 1.857-0.3754 1.268-0.3925 1.179-0.3037 1.339-0.3215 1.786-0.357 1.946-0.3215 1.429-0.1966 2.179-0.3215 1.286-0.1604 1.803-0.161h1.143l1.411-0.03551 1.339 0.01774 1.232 0.0894 1.625 0.1966 1.518 0.2143 1.875 0.2853 1.5 0.3392 1.319 0.4097-4.502-7.797-1.178 0.4776-1.212 0.3282-1.868 0.379-1.92 0.1261-1.515 0.02511-1.844-0.2021-2.121-0.2272-2.096-0.278-1.44-0.3282-1.515-0.4543-1.667-0.4801-1.768-0.6062-1.263-0.5046-2.222-0.8083-1.591-0.6564-1.288-0.2529zm-0.1145 14.36-1.5 0.1427-1.214 0.2682-1.893 0.5536-2.267 0.714-2.393 0.643-2.571 0.1604-3.214-0.03551-2.054-0.286-1.607-0.4464-2.551-0.9522-0.3931 0.6809 5.181 8.973h46.67l5.181-8.973-0.3986-0.6907-1.831 0.4268-2.714 0.5891-2.072 0.4286-1.857 0.4286-1.839 0.2143-2.196 0.05327-2.107-0.01774-1.928-0.1427-2.179-0.1788-2.607-0.2676-1.946-0.286-2.125-0.357-1.786-0.3931-2.018-0.3925-1.875-0.3576-1.982-0.357z" fill="#f1db38"/>
</svg>
