<?xml version="1.0" encoding="UTF-8"?>
<svg width="244" height="244" version="1.1" viewBox="0 0 64.56 64.56" xmlns="http://www.w3.org/2000/svg">
 <path d="m32.23 3.074-0.5258 0.08373-0.2528 0.1536-0.1648 0.2421-0.4949 1.1-0.4512 1.089-0.4394 1.088-0.6821 1.726-1.045 2.046-1.364 2.881-1.11 1.991-0.9471 1.588 7.414 6.374 0.06239-0.05546 0.06239 0.05546 7.414-6.374-0.9471-1.588-1.11-1.991-1.364-2.881-1.045-2.046-0.6821-1.726-0.4394-1.088-0.4512-1.089-0.4949-1.1-0.1648-0.2421-0.2528-0.1536zm-9.702 16.88-0.1381 0.1792-0.7477 0.8575-1.076 1.192-1.322 1.151-1.431 1.042-2.271 1.26-1.648 0.9333-1.555 0.8399-1.773 0.8239-1.664 0.7775-1.773 0.7775-1.555 0.7311-1.555 0.5285-0.2954 0.2954-0.1403 0.3114-0.01546 0.4197-0.03093 0.4976 0.1088 0.3578 0.4976 0.3418 2.55 1.167 1.928 0.9018 1.602 0.6687 1.587 0.7775 1.726 0.7621 1.68 0.8709 0.01919 0.01493 13.33-11.81zm19.4 0-6.041 6.667 13.33 11.81 0.0192-0.01493 1.68-0.8709 1.726-0.7621 1.587-0.7775 1.602-0.6687 1.928-0.9018 2.55-1.167 0.4976-0.3418 0.1088-0.3578-0.03093-0.4976-0.01546-0.4197-0.1403-0.3114-0.2954-0.2954-1.555-0.5285-1.555-0.7311-1.773-0.7775-1.664-0.7775-1.773-0.8239-1.555-0.8399-1.648-0.9333-2.271-1.26-1.431-1.042-1.322-1.151-1.076-1.192-0.7477-0.8575zm-9.702 11.78-9.897 12.09 0.1301 0.09919 1.042 0.9023 0.8399 1.057 0.9173 1.493 0.529 0.9487 0.4976 1.042 0.7466 1.493 0.7151 1.509 1.368 3.312 1.446 3.391 0.6687 1.571 0.249 0.4666 0.233 0.2021 0.5136 0.1243 0.5136-0.1243 0.233-0.2021 0.249-0.4666 0.6687-1.571 1.446-3.391 1.368-3.312 0.7151-1.509 0.7466-1.493 0.4976-1.042 0.529-0.9487 0.9173-1.493 0.8399-1.057 1.042-0.9023 0.1301-0.09919z" fill="#fd80d1"/>
</svg>
