<?xml version="1.0" encoding="UTF-8"?>
<svg width="244" height="244" version="1.1" viewBox="0 0 64.56 64.56" xmlns="http://www.w3.org/2000/svg">
 <path d="m32.28 5.456a5.399 5.399 0 0 0-5.399 5.399 5.399 5.399 0 0 0 4.201 5.264v10.45a7.454 7.454 0 0 0-6.304 7.363 7.454 7.454 0 0 0 6.304 7.363v9.773h-9.452l-7.635-22.16 3.784-2.77h-13.24l11.55 33.04h32.43l11.55-33.04h-13.24l3.784 2.77-7.635 22.16h-9.463v-9.799a7.454 7.454 0 0 0 6.166-7.336 7.454 7.454 0 0 0-6.166-7.341v-10.48a5.399 5.399 0 0 0 4.159-5.253 5.399 5.399 0 0 0-5.399-5.399z" fill="#e48be4"/>
</svg>
