<?xml version="1.0" encoding="UTF-8"?>
<svg width="244" height="244" version="1.1" viewBox="0 0 64.56 64.56" xmlns="http://www.w3.org/2000/svg">
 <path d="m31.6 4.55-1.859 0.0336-0.9316 0.0504v16.45a12.52 12.52 0 0 0-9.844 12.2 12.52 12.52 0 0 0 12.52 12.52 12.52 12.52 0 0 0 12.52-12.52 12.52 12.52 0 0 0-8.745-11.92v-10.16l1.648 0.3824s1.792 0.263 1.816 0.3586c0.02388 0.09557 1.696 0.6929 1.696 0.6929l1.625 0.6929 1.481 0.836 2.174 1.29 1.983 1.959 1.458 1.601 1.696 2.58 1.72 2.939 1.052 3.512 0.4774 2.7 0.1912 3.656-0.4061 3.082-0.4061 2.246-0.7404 2.054-1.028 2.39-2.031 3.13-1.41 1.888-1.099 1.218-1.1 0.9322-1.41 1.123-1.266 0.8841-1.84 0.9316-1.959 0.8841-2.15 0.741-2.318 0.5492-2.15 0.4305-2.437 0.1431-2.413-0.04751-1.959-0.2868-2.342-0.5736-1.672-0.6929-2.031-0.8366-1.959-1.147-1.577-1.075-1.768-1.648-1.625-1.721-1.577-1.864-1.314-2.054-0.8123-1.721-0.6448-1.457-0.6692-1.792-0.5736-1.936-0.3586-1.792-0.1193-1.458-0.09675-2.149-1.014 0.1356 0.0168 1.233v2.044l0.2028 1.689 0.2028 1.842 0.6083 1.994 0.5237 1.774 0.6251 1.368 0.9293 1.639 0.8111 1.317 0.9293 1.47 0.8615 1.082 1.047 1.132 0.9293 0.9629 0.7097 0.6923 1.301 1.217 1.791 1.166 2.078 1.217 2.163 1.166 2.145 0.8279 2.146 0.4901 1.757 0.2868 1.808 0.237 2.061 0.01679 2.095-0.1182 2.652-0.2874 2.145-0.4392 1.842-0.6425 1.639-0.5237 2.061-0.9119 1.538-0.9461 2.196-1.487 1.014-0.8783 1.503-1.402 1.318-1.183 1.368-1.706 0.9797-1.166 1.267-1.96 1.098-2.112 0.7097-1.774 0.4728-1.554 0.5579-1.554 0.3378-1.537 0.2532-1.589 0.1524-2.466-0.05099-2.382-0.1182-2.247-0.2028-1.825-0.2532-1.199-0.6419-1.875-0.6593-1.943-0.6083-1.267-0.6923-1.622-0.7943-1.351-1.115-1.622-1.047-1.318-1.065-1.334-0.9965-1.047-1.031-0.9461-1.25-1.031-1.335-0.9293-1.436-0.9461-1.47-0.8111-1.723-0.8111-1.538-0.5741-1.571-0.6593-1.656-0.5741-1.977-0.321-1.875-0.2364zm0.07706 20.8a7.741 7.741 0 0 1 7.741 7.741 7.741 7.741 0 0 1-7.741 7.741 7.741 7.741 0 0 1-7.741-7.741 7.741 7.741 0 0 1 7.741-7.741z" fill="#5cd685"/>
</svg>
