<?xml version="1.0" encoding="UTF-8"?>
<svg width="244" height="244" version="1.1" viewBox="0 0 64.56 64.56" xmlns="http://www.w3.org/2000/svg">
 <path d="m32.56 6.092-4.532 5.087-2.686 12.72a9.353 9.353 0 0 1 7.341-3.57 9.353 9.353 0 0 1 7.027 3.244l-2.617-12.39zm0 18.83-1.005 0.1144-0.7362 0.2618-0.5231 0.3594-1.079 0.6213-8.044 13.54-0.3269 1.766-0.04934 1.423 0.4581 1.014 0.785 0.9482 1.21 0.8012 1.406 0.4088 1.243-0.04934 13.28 0.0656 1.112-0.1306 0.9156-0.425 0.9482-0.5562 0.7687-0.9975 0.4744-0.67 0.1957-0.8831 0.04934-1.014-0.18-1.341-0.3925-0.785-6.361-12.08-0.4413-0.4738-0.8831-0.9812-0.5557-0.5394-0.7356-0.3106-0.8175-0.04934zm0 5.591 6.383 10.61h-12.76zm15.51 8.609a9.353 9.353 0 0 1 0.3089 2.266 9.353 9.353 0 0 1-8.4 9.27l13.39 7.142 6.383-2.497-1.573-6.012zm-31.31 0.2927-9.82 9.875-1.573 6.012 6.383 2.497 12.5-6.667a9.353 9.353 0 0 1-7.852-9.221 9.353 9.353 0 0 1 0.3622-2.496z" fill="#f0b066"/>
</svg>
